{
  "accessors": [
    {
      "bufferView": 2,
      "componentType": 5126,
      "count": 44722,
      "max": [
        1.2434183359146118,
        2.1359593868255615,
        0.22324931621551514
      ],
      "min": [
        -1.2386013269424438,
        -0.4321174919605255,
        -0.03528105840086937
      ],
      "type": "VEC3"
    },
    {
      "bufferView": 2,
      "byteOffset": 536664,
      "componentType": 5126,
      "count": 44722,
      "max": [
        0.9999961853027344,
        0.999997615814209,
        0.9999852180480957
      ],
      "min": [
        -0.9999960660934448,
        -0.9997967481613159,
        -1.0
      ],
      "type": "VEC3"
    },
    {
      "bufferView": 1,
      "componentType": 5126,
      "count": 44722,
      "max": [
        0.9929021000862122,
        0.9943864345550537
      ],
      "min": [
        0.02164219506084919,
        0.005006261169910431
      ],
      "type": "VEC2"
    },
    {
      "bufferView": 1,
      "byteOffset": 357776,
      "componentType": 5126,
      "count": 44722,
      "max": [
        0.9929021000862122,
        0.9943864345550537
      ],
      "min": [
        0.02164219506084919,
        0.005006261169910431
      ],
      "type": "VEC2"
    },
    {
      "bufferView": 1,
      "byteOffset": 715552,
      "componentType": 5126,
      "count": 44722,
      "max": [
        0.9929021000862122,
        0.9943864345550537
      ],
      "min": [
        0.02164219506084919,
        0.005006261169910431
      ],
      "type": "VEC2"
    },
    {
      "bufferView": 0,
      "componentType": 5125,
      "count": 206352,
      "type": "SCALAR"
    }
  ],
  "asset": {
    "extras": {
      "author": "DigitalLife3D (https://sketchfab.com/DigitalLife3D)",
      "license": "CC-BY-NC-4.0 (http://creativecommons.org/licenses/by-nc/4.0/)",
      "source": "https://sketchfab.com/3d-models/model-84c-manta-ray-mesh-38fa168e96944e518fe15e702ad79ee0",
      "title": "Model 84C - Manta Ray Mesh"
    },
    "generator": "Sketchfab-16.53.0",
    "version": "2.0"
  },
  "bufferViews": [
    {
      "buffer": 0,
      "byteLength": 825408,
      "name": "floatBufferViews",
      "target": 34963
    },
    {
      "buffer": 0,
      "byteLength": 1073328,
      "byteOffset": 825408,
      "byteStride": 8,
      "name": "floatBufferViews",
      "target": 34962
    },
    {
      "buffer": 0,
      "byteLength": 1073328,
      "byteOffset": 1898736,
      "byteStride": 12,
      "name": "floatBufferViews",
      "target": 34962
    }
  ],
  "buffers": [
    {
      "byteLength": 2972064,
      "uri": "scene.bin"
    }
  ],
  "materials": [
    {
      "doubleSided": true,
      "name": "body",
      "pbrMetallicRoughness": {
        "baseColorFactor": [
          0.8,
          0.8,
          0.8,
          1.0
        ],
        "metallicFactor": 0.0,
        "roughnessFactor": 0.8403282588113409
      }
    }
  ],
  "meshes": [
    {
      "name": "manta_ray_body_0",
      "primitives": [
        {
          "attributes": {
            "NORMAL": 1,
            "POSITION": 0,
            "TEXCOORD_0": 2,
            "TEXCOORD_1": 3,
            "TEXCOORD_2": 4
          },
          "indices": 5,
          "material": 0,
          "mode": 4
        }
      ]
    }
  ],
  "nodes": [
    {
      "children": [
        1
      ],
      "matrix": [
        1.0,
        0.0,
        0.0,
        0.0,
        0.0,
        2.220446049250313e-16,
        -1.0,
        0.0,
        0.0,
        1.0,
        2.220446049250313e-16,
        0.0,
        0.0,
        0.0,
        0.0,
        1.0
      ],
      "name": "Sketchfab_model"
    },
    {
      "children": [
        2
      ],
      "matrix": [
        0.009999999776482582,
        0.0,
        0.0,
        0.0,
        0.0,
        0.0,
        0.009999999776482582,
        0.0,
        0.0,
        -0.009999999776482582,
        0.0,
        0.0,
        0.0,
        0.0,
        0.0,
        1.0
      ],
      "name": "6f02b0f733b34f768bd088794560c8c7.fbx"
    },
    {
      "children": [
        3
      ],
      "name": "RootNode"
    },
    {
      "children": [
        4
      ],
      "matrix": [
        100.0,
        0.0,
        0.0,
        0.0,
        0.0,
        -1.629206793918314e-05,
        -99.99999999999868,
        0.0,
        0.0,
        99.99999999999868,
        -1.629206793918314e-05,
        0.0,
        0.0,
        0.0,
        0.0,
        1.0
      ],
      "name": "manta_ray"
    },
    {
      "mesh": 0,
      "name": "manta_ray_body_0"
    }
  ],
  "scene": 0,
  "scenes": [
    {
      "name": "Sketchfab_Scene",
      "nodes": [
        0
      ]
    }
  ]
}
